<?xml version="1.0" encoding="UTF-8"?>
<svg id="Lager_1" data-name="Lager 1" xmlns="http://www.w3.org/2000/svg" viewBox="0 0 524.43 153.54">
  <defs>
    <style>
      .cls-1 {
        fill: #009c9b;
      }
    </style>
  </defs>
  <path class="cls-1" d="M524.43,14.15l-19.75-14.15c-23.34,32.58-47.99,35.23-75.49,35.23h-47.77v24.29h47.77c30.35,0,65.24-3.51,95.24-45.38h0ZM466.94,82.28h-85.54v24.29h85.54v-24.29h0ZM490.02,129.25h-108.61v24.29h108.61v-24.29h0Z"/>
  <g>
    <path class="cls-1" d="M32.58,136.86c-13.41,0-26.19-6.86-32.58-16.83l17.93-15.74c3.27,6.08,7.95,9.82,14.5,9.82,9.66,0,14.81-6.39,14.81-17.77V17.46h25.1v79.66c0,24.16-16.68,39.75-39.75,39.75Z"/>
    <path class="cls-1" d="M136.55,101.95v-45.21h23.69v45.99c0,20.11-15.28,34.14-36.32,34.14s-36.48-14.03-36.48-34.29v-45.83h23.69v45.21c0,9.2,4.68,14.65,12.78,14.65s12.63-5.46,12.63-14.65Z"/>
    <path class="cls-1" d="M212.93,76.07c-8.73,0-14.03,6.7-14.03,15.9v43.02h-23.69V56.74h23.69v9.04c4.68-6.08,12.47-10.91,22.76-10.91,17.3,0,28.06,11.69,28.06,28.68v51.44h-23.69v-44.9c0-8.11-4.68-14.03-13.09-14.03Z"/>
    <path class="cls-1" d="M302.87,54.87c22.76,0,42.09,17.46,42.09,41s-19.33,41-42.09,41-42.25-17.46-42.25-41,19.49-41,42.25-41ZM302.87,116.44c11.38,0,19.95-8.89,19.95-20.58s-8.57-20.58-19.95-20.58-20.11,8.89-20.11,20.58,8.57,20.58,20.11,20.58Z"/>
  </g>
</svg>