<?xml version="1.0" encoding="UTF-8" standalone="no"?>
<!DOCTYPE svg PUBLIC "-//W3C//DTD SVG 1.1//EN" "http://www.w3.org/Graphics/SVG/1.1/DTD/svg11.dtd">
<svg width="100%" height="100%" viewBox="0 0 451 350" version="1.1" xmlns="http://www.w3.org/2000/svg" xmlns:xlink="http://www.w3.org/1999/xlink" xml:space="preserve" xmlns:serif="http://www.serif.com/" style="fill-rule:evenodd;clip-rule:evenodd;stroke-linejoin:round;stroke-miterlimit:2;">
    <g id="GO-Logo" serif:id="GO Logo" transform="matrix(1,0,0,1,-24.9475,-109.071)">
        <g id="Online">
            <g transform="matrix(4.16667,0,0,4.16667,220.097,457.574)">
                <g>
                    <g>
                        <path d="M2.208,-1.354C1.302,-2.354 0.854,-3.63 0.854,-5.187C0.854,-6.74 1.302,-8.021 2.208,-9.021C3.125,-10.031 4.323,-10.542 5.813,-10.542C7.313,-10.542 8.51,-10.031 9.417,-9.021C10.333,-8.021 10.792,-6.74 10.792,-5.187C10.792,-3.63 10.333,-2.354 9.417,-1.354C8.51,-0.354 7.313,0.146 5.813,0.146C4.323,0.146 3.125,-0.354 2.208,-1.354ZM2.542,-8.708C1.719,-7.792 1.313,-6.615 1.313,-5.187C1.313,-3.771 1.719,-2.594 2.542,-1.667C3.375,-0.75 4.464,-0.292 5.813,-0.292C7.172,-0.292 8.271,-0.75 9.104,-1.667C9.938,-2.594 10.354,-3.771 10.354,-5.187C10.354,-6.615 9.938,-7.792 9.104,-8.708C8.271,-9.625 7.172,-10.083 5.813,-10.083C4.464,-10.083 3.375,-9.625 2.542,-8.708Z" style="fill:rgb(0,132,61);fill-rule:nonzero;"/>
                    </g>
                </g>
            </g>
            <g transform="matrix(4.16667,0,0,4.16667,268.659,457.574)">
                <g>
                    <g>
                        <path d="M0.75,-0.437L1.792,-0.437C1.943,-0.437 2.021,-0.51 2.021,-0.667L2.021,-6.75C2.021,-6.901 1.943,-6.979 1.792,-6.979L0.75,-6.979C0.609,-6.979 0.542,-7.047 0.542,-7.187C0.542,-7.339 0.609,-7.417 0.75,-7.417L2.25,-7.417C2.385,-7.417 2.458,-7.339 2.458,-7.187L2.458,-6.354C2.458,-6.255 2.479,-6.187 2.521,-6.146C2.563,-6.115 2.625,-6.135 2.708,-6.208C3.5,-7.109 4.365,-7.562 5.313,-7.562C6.255,-7.562 6.979,-7.302 7.479,-6.792C7.99,-6.292 8.25,-5.562 8.25,-4.604L8.25,-0.667C8.25,-0.51 8.323,-0.437 8.479,-0.437L9.5,-0.437C9.651,-0.437 9.729,-0.359 9.729,-0.208C9.729,-0.068 9.651,0 9.5,0L6.688,0C6.531,0 6.458,-0.068 6.458,-0.208C6.458,-0.359 6.531,-0.437 6.688,-0.437L7.583,-0.437C7.734,-0.437 7.813,-0.51 7.813,-0.667L7.813,-4.604C7.813,-5.437 7.589,-6.062 7.146,-6.479C6.714,-6.906 6.125,-7.125 5.375,-7.125C4.625,-7.125 3.906,-6.781 3.229,-6.104C2.938,-5.812 2.677,-5.484 2.458,-5.125L2.458,-0.667C2.458,-0.51 2.531,-0.437 2.688,-0.437L3.583,-0.437C3.719,-0.437 3.792,-0.359 3.792,-0.208C3.792,-0.068 3.719,0 3.583,0L0.75,0C0.609,0 0.542,-0.068 0.542,-0.208C0.542,-0.359 0.609,-0.437 0.75,-0.437Z" style="fill:rgb(0,132,61);fill-rule:nonzero;"/>
                    </g>
                </g>
            </g>
            <g transform="matrix(4.16667,0,0,4.16667,309.931,457.574)">
                <g>
                    <g>
                        <path d="M0.5,0C0.359,0 0.292,-0.068 0.292,-0.208C0.292,-0.359 0.359,-0.437 0.5,-0.437L1.542,-0.437C1.693,-0.437 1.771,-0.51 1.771,-0.667L1.771,-9.708C1.771,-9.859 1.693,-9.937 1.542,-9.937L0.5,-9.937C0.359,-9.937 0.292,-10.005 0.292,-10.146C0.292,-10.297 0.359,-10.375 0.5,-10.375L1.979,-10.375C2.13,-10.375 2.208,-10.302 2.208,-10.167L2.208,-0.667C2.208,-0.51 2.281,-0.437 2.438,-0.437L3.479,-0.437C3.615,-0.437 3.688,-0.359 3.688,-0.208C3.688,-0.068 3.615,0 3.479,0L0.5,0Z" style="fill:rgb(0,132,61);fill-rule:nonzero;"/>
                    </g>
                </g>
            </g>
            <g transform="matrix(4.16667,0,0,4.16667,326.489,457.574)">
                <g>
                    <g>
                        <path d="M0.771,0C0.615,0 0.542,-0.068 0.542,-0.208C0.542,-0.359 0.615,-0.437 0.771,-0.437L1.813,-0.437C1.964,-0.437 2.042,-0.51 2.042,-0.667L2.042,-6.75C2.042,-6.901 1.964,-6.979 1.813,-6.979L0.771,-6.979C0.615,-6.979 0.542,-7.047 0.542,-7.187C0.542,-7.339 0.615,-7.417 0.771,-7.417L2.25,-7.417C2.401,-7.417 2.479,-7.339 2.479,-7.187L2.479,-0.667C2.479,-0.51 2.552,-0.437 2.708,-0.437L3.729,-0.437C3.88,-0.437 3.958,-0.359 3.958,-0.208C3.958,-0.068 3.88,0 3.729,0L0.771,0ZM1.75,-8.771C1.635,-8.88 1.583,-9.021 1.583,-9.187C1.583,-9.365 1.635,-9.51 1.75,-9.625C1.875,-9.734 2.021,-9.792 2.188,-9.792C2.354,-9.792 2.49,-9.734 2.604,-9.625C2.714,-9.51 2.771,-9.365 2.771,-9.187C2.771,-9.021 2.714,-8.88 2.604,-8.771C2.49,-8.656 2.354,-8.604 2.188,-8.604C2.021,-8.604 1.875,-8.656 1.75,-8.771Z" style="fill:rgb(0,132,61);fill-rule:nonzero;"/>
                    </g>
                </g>
            </g>
            <g transform="matrix(4.16667,0,0,4.16667,344.159,457.574)">
                <g>
                    <g>
                        <path d="M0.75,-0.437L1.792,-0.437C1.943,-0.437 2.021,-0.51 2.021,-0.667L2.021,-6.75C2.021,-6.901 1.943,-6.979 1.792,-6.979L0.75,-6.979C0.609,-6.979 0.542,-7.047 0.542,-7.187C0.542,-7.339 0.609,-7.417 0.75,-7.417L2.25,-7.417C2.385,-7.417 2.458,-7.339 2.458,-7.187L2.458,-6.354C2.458,-6.255 2.479,-6.187 2.521,-6.146C2.563,-6.115 2.625,-6.135 2.708,-6.208C3.5,-7.109 4.365,-7.562 5.313,-7.562C6.255,-7.562 6.979,-7.302 7.479,-6.792C7.99,-6.292 8.25,-5.562 8.25,-4.604L8.25,-0.667C8.25,-0.51 8.323,-0.437 8.479,-0.437L9.5,-0.437C9.651,-0.437 9.729,-0.359 9.729,-0.208C9.729,-0.068 9.651,0 9.5,0L6.688,0C6.531,0 6.458,-0.068 6.458,-0.208C6.458,-0.359 6.531,-0.437 6.688,-0.437L7.583,-0.437C7.734,-0.437 7.813,-0.51 7.813,-0.667L7.813,-4.604C7.813,-5.437 7.589,-6.062 7.146,-6.479C6.714,-6.906 6.125,-7.125 5.375,-7.125C4.625,-7.125 3.906,-6.781 3.229,-6.104C2.938,-5.812 2.677,-5.484 2.458,-5.125L2.458,-0.667C2.458,-0.51 2.531,-0.437 2.688,-0.437L3.583,-0.437C3.719,-0.437 3.792,-0.359 3.792,-0.208C3.792,-0.068 3.719,0 3.583,0L0.75,0C0.609,0 0.542,-0.068 0.542,-0.208C0.542,-0.359 0.609,-0.437 0.75,-0.437Z" style="fill:rgb(0,132,61);fill-rule:nonzero;"/>
                    </g>
                </g>
            </g>
            <g transform="matrix(4.16667,0,0,4.16667,385.431,457.574)">
                <g>
                    <g>
                        <path d="M6.583,-1.042C6.75,-1.151 6.875,-1.25 6.958,-1.333C7.042,-1.417 7.104,-1.443 7.146,-1.417C7.198,-1.385 7.26,-1.333 7.333,-1.25C7.401,-1.167 7.38,-1.073 7.271,-0.979C6.906,-0.672 6.49,-0.406 6.021,-0.187C5.563,0.031 4.969,0.146 4.25,0.146C3.208,0.146 2.365,-0.214 1.729,-0.937C1.089,-1.656 0.771,-2.583 0.771,-3.708C0.771,-4.833 1.089,-5.755 1.729,-6.479C2.365,-7.198 3.198,-7.562 4.229,-7.562C5.271,-7.562 6.115,-7.234 6.771,-6.583C7.422,-5.927 7.75,-5.146 7.75,-4.229L7.75,-4C7.75,-3.708 7.594,-3.562 7.292,-3.562L1.458,-3.562C1.292,-3.562 1.214,-3.484 1.229,-3.333C1.281,-2.469 1.573,-1.75 2.104,-1.167C2.646,-0.583 3.375,-0.292 4.292,-0.292C5.219,-0.292 5.984,-0.542 6.583,-1.042ZM1.25,-4.187C1.25,-4.062 1.318,-4 1.458,-4L7.083,-4C7.219,-4 7.292,-4.073 7.292,-4.229C7.292,-5.021 7,-5.698 6.417,-6.271C5.844,-6.839 5.115,-7.125 4.229,-7.125C3.354,-7.125 2.635,-6.812 2.083,-6.187C1.526,-5.562 1.25,-4.896 1.25,-4.187Z" style="fill:rgb(0,132,61);fill-rule:nonzero;"/>
                    </g>
                </g>
            </g>
        </g>
        <g transform="matrix(4.05983,0,0,4.05983,1.4359,9.20343)">
            <g id="Greenheart---Heart" serif:id="Greenheart + Heart">
                <g>
                    <g>
                        <g transform="matrix(0.49243,0,0,0.49243,13.44,86.1441)">
                            <path d="M26.628,8.51C28.451,5.244 30.918,3.017 34.018,1.809C35.913,1.054 37.773,0.732 39.558,0.803C41.467,0.886 43.563,1.102 45.532,2.143C47.676,3.269 49.152,4.992 50.242,6.608C51.346,8.213 52.027,10.257 52.315,12.736C52.587,15.201 52.4,17.355 51.767,19.198C51.151,20.976 50.358,22.688 49.4,24.308C48.47,25.876 47.23,27.433 45.705,28.988C44.801,29.898 43.339,31.262 41.294,33.082C40.364,33.919 38.889,35.2 36.843,36.936C35.045,38.456 33.731,39.616 32.863,40.43C30.46,42.626 28.352,45.124 26.592,47.863C24.85,45.118 22.754,42.615 20.357,40.418C19.488,39.617 18.162,38.456 16.377,36.936C14.879,35.668 13.396,34.383 11.927,33.082C9.883,31.262 8.407,29.898 7.515,28.977C5.989,27.433 4.763,25.865 3.821,24.297C2.863,22.676 2.07,20.964 1.452,19.186C0.821,17.355 0.634,15.2 0.92,12.724C1.191,10.257 1.875,8.213 2.977,6.596C4.07,4.98 5.21,3.64 7.354,2.502C9.324,1.474 11.754,0.886 13.664,0.802C15.448,0.72 17.295,1.054 19.204,1.796C22.304,3.005 24.771,5.244 26.629,8.511" style="fill:rgb(0,132,61);"/>
                        </g>
                        <g transform="matrix(0.49243,0,0,0.49243,13.44,86.1441)">
                            <path d="M14.197,1.581C14.03,1.581 13.864,1.585 13.699,1.593C11.749,1.678 9.459,2.295 7.719,3.203C5.779,4.234 4.715,5.435 3.632,7.038C2.612,8.535 1.963,10.477 1.705,12.811C1.437,15.144 1.605,17.201 2.2,18.928C2.801,20.655 3.571,22.318 4.5,23.893C5.422,25.429 6.627,26.953 8.077,28.421C8.922,29.294 10.311,30.585 12.452,32.491C13.32,33.263 14.795,34.556 16.889,36.333C18.67,37.85 20.017,39.029 20.892,39.837C23.038,41.809 24.952,44.02 26.595,46.428C28.252,44.026 30.176,41.818 32.329,39.848C33.255,38.979 34.641,37.761 36.332,36.332C37.826,35.072 39.303,33.792 40.764,32.494C42.694,30.777 44.207,29.374 45.144,28.432C46.64,26.905 47.845,25.381 48.72,23.905C49.652,22.33 50.423,20.666 51.02,18.936C51.614,17.209 51.785,15.151 51.528,12.823C51.255,10.471 50.603,8.529 49.59,7.056C48.242,5.058 46.837,3.721 45.164,2.843C43.344,1.881 41.377,1.674 39.524,1.593C39.374,1.587 39.224,1.584 39.074,1.584C37.512,1.584 35.909,1.907 34.309,2.544C31.384,3.684 29.034,5.82 27.319,8.896L26.635,10.122L25.941,8.902C24.155,5.763 21.856,3.68 18.915,2.533C17.291,1.901 15.703,1.581 14.197,1.581ZM26.587,49.334L25.923,48.285C24.216,45.6 22.164,43.151 19.82,40.999C18.96,40.205 17.63,39.04 15.864,37.537C14.362,36.265 12.874,34.977 11.401,33.672C9.231,31.74 7.814,30.423 6.946,29.527C5.413,27.975 4.132,26.351 3.142,24.704C2.158,23.036 1.342,21.275 0.706,19.447C0.031,17.492 -0.16,15.2 0.133,12.634C0.42,10.043 1.157,7.86 2.324,6.15C3.507,4.398 4.754,2.987 6.982,1.804C8.92,0.793 11.463,0.108 13.627,0.013C15.489,-0.074 17.478,0.277 19.489,1.059C22.366,2.181 24.761,4.173 26.623,6.99C28.449,4.188 30.835,2.201 33.73,1.072C35.685,0.294 37.667,-0.064 39.59,0.013C41.631,0.102 43.806,0.337 45.901,1.444C47.786,2.434 49.421,3.978 50.897,6.166C52.054,7.848 52.797,10.03 53.099,12.645C53.383,15.211 53.185,17.501 52.514,19.455C51.839,21.378 51.044,23.096 50.079,24.713C49.14,26.296 47.859,27.922 46.269,29.543C45.305,30.511 43.769,31.938 41.819,33.672C40.841,34.552 39.296,35.891 37.354,37.538C35.684,38.952 34.317,40.151 33.404,41.007C31.05,43.16 28.983,45.608 27.256,48.29L26.586,49.334L26.587,49.334Z" style="fill:rgb(255,209,0);"/>
                        </g>
                        <g transform="matrix(0.748142,0,0,0.748142,-2.22544,85.8943)">
                            <path d="M64.332,10.116C63.09,10.116 62.477,11.408 62.477,12.518C62.477,13.792 63.09,14.952 64.332,14.952C65.607,14.952 66.203,13.759 66.203,12.6C66.203,11.441 65.64,10.116 64.333,10.116L64.332,10.116ZM68.587,16.243C68.587,19.108 66.717,20.548 64.001,20.548C63.024,20.548 60.242,20.068 60.242,18.76C60.242,18.313 60.739,17.717 61.202,17.717C61.964,17.717 62.809,18.462 64.183,18.462C65.343,18.462 66.203,17.783 66.203,16.574L66.203,16.011L66.17,16.011C65.673,16.741 64.862,17.137 63.77,17.137C61.268,17.137 60.093,14.935 60.093,12.567C60.093,10.167 61.616,7.93 64.017,7.93C64.829,7.93 65.757,8.295 66.203,9.024C66.353,8.394 66.733,8.03 67.395,8.03C68.091,8.03 68.587,8.56 68.587,9.354L68.587,16.244L68.587,16.243ZM69.996,9.222C69.996,8.427 70.626,8.03 71.221,8.03C71.851,8.03 72.381,8.262 72.381,9.024L72.414,9.024C72.861,8.361 73.341,8.03 74.087,8.03C74.666,8.03 75.245,8.444 75.245,9.305C75.245,10.083 74.533,10.133 73.821,10.465C73.109,10.796 72.381,11.11 72.381,12.053L72.381,15.713C72.381,16.508 71.884,17.038 71.188,17.038C70.493,17.038 69.996,16.508 69.996,15.713L69.996,9.222ZM81.704,11.74C81.572,10.696 80.91,9.918 79.8,9.918C78.74,9.918 78.028,10.729 77.912,11.739L81.703,11.739L81.704,11.74ZM77.962,13.33C78.127,14.504 79.104,15.051 80.213,15.051C81.439,15.051 82.283,14.091 82.913,14.091C83.426,14.091 83.89,14.603 83.89,15.117C83.89,16.144 81.77,17.137 79.999,17.137C77.316,17.137 75.528,15.183 75.528,12.55C75.528,10.133 77.282,7.93 79.799,7.93C82.382,7.93 84.089,10.282 84.089,12.27C84.089,12.981 83.773,13.33 83.045,13.33L77.96,13.33L77.962,13.33ZM91.093,11.74C90.961,10.696 90.298,9.918 89.188,9.918C88.129,9.918 87.418,10.729 87.301,11.739L91.093,11.739L91.093,11.74ZM87.351,13.33C87.516,14.504 88.493,15.051 89.603,15.051C90.828,15.051 91.673,14.091 92.303,14.091C92.815,14.091 93.279,14.603 93.279,15.117C93.279,16.144 91.159,17.137 89.387,17.137C86.705,17.137 84.917,15.183 84.917,12.55C84.917,10.133 86.672,7.93 89.188,7.93C91.772,7.93 93.478,10.282 93.478,12.27C93.478,12.981 93.163,13.33 92.434,13.33L87.351,13.33ZM94.571,9.354C94.571,8.561 95.068,8.03 95.763,8.03C96.375,8.03 96.774,8.362 96.856,8.908C97.319,8.262 98.032,7.931 99.158,7.931C101.029,7.931 102.42,9.123 102.42,11.143L102.42,15.713C102.42,16.508 101.923,17.038 101.228,17.038C100.532,17.038 100.035,16.508 100.035,15.713L100.035,11.557C100.035,10.447 99.34,9.917 98.479,9.917C97.502,9.917 96.956,10.63 96.956,11.557L96.956,15.713C96.956,16.508 96.459,17.038 95.763,17.038C95.068,17.038 94.571,16.508 94.571,15.713L94.571,9.354ZM103.862,5.513C103.862,4.718 104.359,4.188 105.054,4.188C105.749,4.188 106.247,4.718 106.247,5.513L106.247,8.759L106.28,8.759C106.776,8.146 107.704,7.931 108.449,7.931C110.319,7.931 111.712,9.123 111.712,11.143L111.712,15.713C111.712,16.508 111.214,17.038 110.519,17.038C109.824,17.038 109.326,16.508 109.326,15.713L109.326,11.557C109.326,10.447 108.631,9.917 107.77,9.917C106.793,9.917 106.247,10.63 106.247,11.557L106.247,15.713C106.247,16.508 105.749,17.038 105.054,17.038C104.359,17.038 103.862,16.508 103.862,15.713L103.862,5.513ZM118.981,11.74C118.849,10.696 118.186,9.918 117.077,9.918C116.017,9.918 115.305,10.729 115.189,11.739L118.981,11.739L118.981,11.74ZM115.239,13.33C115.405,14.504 116.381,15.051 117.49,15.051C118.716,15.051 119.561,14.091 120.19,14.091C120.703,14.091 121.167,14.603 121.167,15.117C121.167,16.144 119.047,17.137 117.276,17.137C114.593,17.137 112.805,15.183 112.805,12.55C112.805,10.133 114.56,7.93 117.077,7.93C119.66,7.93 121.366,10.282 121.366,12.27C121.366,12.981 121.051,13.33 120.322,13.33L115.239,13.33ZM126.55,14.952C127.791,14.952 128.387,13.694 128.387,12.55C128.387,11.408 127.807,10.116 126.549,10.116C125.241,10.116 124.661,11.408 124.661,12.55C124.661,13.694 125.257,14.952 126.549,14.952L126.55,14.952ZM130.771,15.482C130.771,16.094 130.771,17.038 129.629,17.038C128.934,17.038 128.652,16.657 128.486,16.028C127.874,16.757 127.129,17.138 126.218,17.138C123.982,17.138 122.278,15.233 122.278,12.55C122.278,9.934 124.031,7.93 126.218,7.93C127.096,7.93 127.958,8.278 128.486,9.024C128.552,8.444 129.049,8.03 129.629,8.03C130.771,8.03 130.771,8.974 130.771,9.587L130.771,15.482ZM132.18,9.222C132.18,8.427 132.81,8.03 133.406,8.03C134.035,8.03 134.565,8.262 134.565,9.024L134.598,9.024C135.045,8.361 135.526,8.03 136.271,8.03C136.85,8.03 137.43,8.444 137.43,9.305C137.43,10.083 136.717,10.133 136.005,10.465C135.293,10.796 134.565,11.11 134.565,12.053L134.565,15.713C134.565,16.508 134.068,17.038 133.372,17.038C132.677,17.038 132.18,16.508 132.18,15.713L132.18,9.222ZM139.805,10.216L139.275,10.216C138.629,10.216 138.231,9.819 138.231,9.173C138.231,9.165 138.231,9.157 138.231,9.15C138.231,8.59 138.691,8.13 139.251,8.13C139.259,8.13 139.267,8.13 139.275,8.13L139.805,8.13L139.805,6.705C139.805,5.91 140.301,5.38 140.997,5.38C141.692,5.38 142.189,5.91 142.189,6.705L142.189,8.13L142.868,8.13C143.481,8.13 144.011,8.411 144.011,9.172C144.011,9.917 143.481,10.215 142.868,10.215L142.188,10.215L142.188,15.713C142.188,16.508 141.692,17.038 140.997,17.038C140.301,17.038 139.805,16.508 139.805,15.713L139.805,10.216ZM145.693,3.23C145.593,3.174 145.433,3.146 145.211,3.146L144.87,3.146L144.87,3.966L145.23,3.966C145.4,3.966 145.526,3.949 145.61,3.915C145.766,3.853 145.844,3.735 145.844,3.561C145.844,3.397 145.794,3.286 145.694,3.23L145.693,3.23ZM145.263,2.873C145.543,2.873 145.75,2.901 145.881,2.955C146.115,3.052 146.231,3.243 146.231,3.528C146.231,3.731 146.158,3.88 146.011,3.975C145.91,4.033 145.799,4.071 145.683,4.085C145.86,4.113 145.991,4.187 146.073,4.305C146.155,4.425 146.196,4.543 146.196,4.657L146.196,4.822C146.196,4.875 146.197,4.931 146.2,4.991C146.201,5.031 146.207,5.07 146.22,5.108L146.234,5.136L145.861,5.136L145.855,5.114C145.853,5.106 145.851,5.097 145.849,5.089L145.842,5.016L145.842,4.836C145.842,4.576 145.771,4.403 145.628,4.319C145.544,4.271 145.396,4.246 145.184,4.246L144.869,4.246L144.869,5.136L144.472,5.136L144.472,2.873L145.264,2.873L145.263,2.873ZM144.051,2.758C143.713,3.087 143.526,3.541 143.533,4.013C143.533,4.508 143.705,4.929 144.047,5.277C144.374,5.618 144.83,5.807 145.302,5.799C145.795,5.799 146.212,5.625 146.557,5.277C146.902,4.929 147.074,4.507 147.074,4.013C147.074,3.523 146.902,3.105 146.557,2.758C146.229,2.418 145.774,2.228 145.302,2.236C144.831,2.229 144.378,2.418 144.051,2.758ZM146.763,5.473C146.382,5.869 145.853,6.089 145.303,6.08C144.754,6.09 144.225,5.869 143.845,5.473C143.454,5.088 143.237,4.559 143.247,4.011C143.247,3.443 143.449,2.959 143.85,2.556C144.251,2.156 144.735,1.955 145.302,1.955C145.873,1.955 146.36,2.155 146.762,2.555C147.165,2.957 147.366,3.442 147.366,4.011C147.366,4.581 147.164,5.069 146.763,5.473Z" style="fill:rgb(51,113,71);"/>
                        </g>
                    </g>
                </g>
            </g>
        </g>
        <g id="O--World-" serif:id="O (World)">
            <path id="Circle-Outline" serif:id="Circle Outline" d="M351.302,109.071C419.681,109.071 475.195,164.586 475.195,232.964C475.195,301.343 419.681,356.858 351.302,356.858C282.924,356.858 227.409,301.343 227.409,232.964C227.409,164.586 282.924,109.071 351.302,109.071ZM351.302,125.738C292.122,125.738 244.076,173.784 244.076,232.964C244.076,292.144 292.122,340.191 351.302,340.191C410.482,340.191 458.529,292.144 458.529,232.964C458.529,173.784 410.482,125.738 351.302,125.738Z" style="fill:rgb(0,132,61);"/>
            <g id="World" transform="matrix(4.16667,0,0,4.16667,0,0)">
                <path d="M84.516,29.052C99.464,29.052 111.578,41.167 111.578,56.115C111.578,71.057 99.464,83.177 84.516,83.177C69.568,83.177 57.453,71.057 57.453,56.115C57.453,41.167 69.568,29.052 84.516,29.052ZM95.214,43.141C95.281,43.198 95.349,43.266 95.411,43.328C95.682,43.583 95.953,43.854 96.255,43.854C96.927,43.854 97.568,42.443 97.661,41.677C97.688,41.505 97.661,41.406 97.635,41.37C97.62,41.354 97.589,41.349 97.583,41.349C97.37,41.365 97.193,41.193 97.172,40.969C97.12,40.464 97.026,39.938 96.932,39.594C96.812,39.932 96.651,40.599 96.578,41.76C96.542,42.333 96.365,42.719 96.042,42.948C95.797,43.12 95.51,43.161 95.214,43.141ZM109.792,54.021C108.771,53.896 107.724,53.865 107.224,53.938C107.615,54.141 108.417,54.37 108.849,54.495C109.172,54.583 109.469,54.672 109.693,54.75C109.75,54.771 109.802,54.797 109.854,54.818C109.839,54.552 109.812,54.286 109.792,54.021ZM82.906,30.797C82.766,30.984 82.594,31.188 82.37,31.432C82.682,31.208 83.031,30.99 83.396,30.771C83.234,30.776 83.068,30.786 82.906,30.797ZM95.057,50.807C94.813,50.526 94.885,50.151 94.953,49.818C95.021,49.453 95.062,49.182 94.922,49.016C94.896,48.984 94.859,48.953 94.76,48.948C94.286,48.917 93.255,49.5 92.276,50.375C92.125,50.51 91.979,50.615 91.833,50.703C92.12,50.667 92.432,50.635 92.755,50.599C93.193,50.552 93.609,50.51 93.818,50.458C93.932,50.432 94.036,50.417 94.135,50.417C94.911,50.417 95.193,51.26 95.422,51.953C95.484,52.151 95.552,52.365 95.635,52.578C95.667,52.651 95.708,52.698 95.792,52.729C96.224,52.896 97.193,52.547 97.594,52.349C97.594,52.344 98.479,51.813 99.286,52.214C99.563,52.354 100.797,52.323 101.922,52.214L101.922,51.057C101.516,51.068 100.901,51.073 100.396,51.047C99.74,51.01 99.344,50.396 99.125,49.849C98.641,50.38 98.385,50.38 98.286,50.38C97.99,50.38 97.828,50.172 97.672,49.802C97.625,50.005 97.536,50.198 97.396,50.365C97.068,50.766 96.495,51 95.745,51.042C95.437,51.063 95.208,50.979 95.057,50.807ZM105.448,58.531C104.969,58.599 104.536,58.229 104.12,57.651C104.161,57.745 104.208,57.844 104.255,57.938C104.839,59.214 106.885,58.969 107.562,58.891C107.687,58.875 107.781,58.865 107.828,58.865C108.052,58.865 108.245,59.005 108.318,59.224C108.495,59.771 107.813,60.865 106.859,61.557C105.896,62.255 104.677,63.781 104.281,65.474C103.896,67.115 103.411,68.62 101.057,71.714C99.74,73.453 99.099,74.047 98.432,74.047C98.125,74.047 97.813,73.922 97.422,73.724C97.271,73.646 97.099,73.557 96.901,73.474C95.557,72.896 95.599,71.094 95.635,69.5C95.646,69.016 95.656,68.557 95.63,68.135C95.573,67.104 95.641,66.531 95.698,66.073C95.74,65.708 95.776,65.427 95.734,65.01C95.693,64.62 95.526,64.37 95.312,64.052C95.062,63.677 94.781,63.25 94.719,62.573C94.599,61.271 94.375,61.036 93.927,61.036C93.698,61.042 93.37,61.068 92.99,61.104C91.859,61.203 90.313,61.333 89.052,61.026C87.115,60.552 86.365,57.339 86.708,55.844C87.031,54.448 87.797,53.844 88.302,53.443L88.38,53.38C88.75,53.083 89.089,52.479 89.417,51.896L89.599,51.573C89.734,51.333 89.99,51.156 90.339,51.026C90.292,51.021 90.245,51.016 90.203,51.01C90.089,51 89.974,50.99 89.865,50.99C89.667,50.99 89.375,50.917 89.12,50.589C88.724,50.083 88.557,49.073 88.74,48.333C88.818,48.031 89,47.813 89.26,47.714C89.677,47.552 90.193,47.745 90.516,47.911L90.531,47.896C90.437,47.625 90.479,47.255 90.552,46.938C90.734,46.151 91.156,45.677 91.687,45.677C91.995,45.672 93.016,44.609 93.87,43.24C93.958,43.089 94.068,42.979 94.187,42.911C93.995,42.849 93.807,42.797 93.635,42.76C93.229,42.682 92.906,42.438 92.693,42.052C92.281,41.313 92.328,40.052 92.818,38.76C93.521,36.891 96.542,35.927 98.672,36.349C100.161,36.641 100.203,37.547 100.229,38.089C100.25,38.458 100.255,38.458 100.391,38.484C100.771,38.552 101.234,37.99 101.589,37.365C98.615,34.651 94.995,32.641 90.99,31.583C90.891,32.74 88.724,37.37 85.875,39.833C84.271,41.219 83.87,41.974 83.578,42.526C83.344,42.974 83.135,43.365 82.448,43.729C82.24,43.844 82.052,43.885 81.901,43.885C81.719,43.885 81.573,43.828 81.474,43.76C80.88,43.365 80.927,42.307 81.062,40.854C81.089,40.552 81.115,40.266 81.115,40.089C81.115,39.724 81.219,39.396 81.318,39.083C81.51,38.479 81.656,38 81.109,37.344C80.786,36.964 80.656,36.594 80.714,36.24C80.797,35.698 81.281,35.396 81.63,35.177C81.682,35.141 81.75,35.104 81.802,35.068C81.755,34.943 81.656,34.755 81.583,34.609C81.385,34.224 81.146,33.75 81.026,33.208C81,33.089 81.01,32.958 81.057,32.823C80.422,33.495 79.807,34.177 79.583,34.625C79.224,35.344 78.88,35.583 78.5,35.583C78.245,35.583 77.969,35.474 77.656,35.333C77.318,35.177 76.896,34.979 76.276,34.849C73.984,34.37 73.177,33.901 72.859,33.589C71.964,34.052 71.099,34.568 70.271,35.13C70.396,35.182 70.516,35.25 70.625,35.333C70.906,35.557 71.073,35.865 71.099,36.229C71.115,36.391 71.125,36.531 71.135,36.661C71.146,36.849 71.161,37.047 71.182,37.151C71.224,37.156 71.286,37.156 71.391,37.156C71.964,37.156 73.698,36.516 74.375,35.979C74.521,35.865 74.823,35.63 75.104,35.885C75.38,36.135 75.187,36.448 75.073,36.63C75.01,36.734 74.839,37.01 74.786,37.172C75.099,37.203 75.526,37.036 75.818,36.922C76.224,36.766 76.568,36.625 76.818,36.922C77.073,37.219 76.849,37.599 76.724,37.797C76.427,38.297 75.568,38.859 74.568,39.516C73.661,40.115 71.974,41.224 72.016,41.698C72.073,42.385 72.167,42.599 72.292,42.766C72.542,42.333 73.031,41.568 73.859,41.844C74.031,41.813 74.391,41.156 74.568,40.839C74.901,40.234 75.187,39.708 75.641,39.615C75.839,39.573 76.042,39.62 76.214,39.75C76.677,40.099 76.927,40.771 77.146,41.365C77.208,41.526 77.286,41.734 77.349,41.87L77.354,41.87C77.724,41.714 78.344,41.458 78.896,41.792C79.307,42.036 79.547,42.536 79.625,43.318C79.693,43.964 79.88,44.594 80.047,45.151C80.307,46.016 80.516,46.698 80.172,47.193C79.99,47.458 79.672,47.609 79.234,47.641C78.094,47.719 77.76,46.839 77.563,46.318C77.505,46.172 77.411,45.932 77.354,45.885C77.349,45.885 77.333,45.885 77.297,45.896C77.068,45.964 76.859,45.974 76.677,45.953C76.729,46.073 76.776,46.182 76.818,46.286C77.073,46.88 77.24,47.271 77.042,47.646C76.88,47.964 76.536,48.073 76.255,48.135C75.917,48.214 75.557,48.188 75.182,48.161C74.396,48.104 73.589,48.052 72.807,48.833C72.187,49.453 71.583,50.802 71.047,52C70.339,53.578 69.948,54.411 69.406,54.609C68.719,54.87 68.083,54.344 67.573,53.917C67.323,53.708 66.979,53.422 66.823,53.422C66.068,53.422 64.484,53.672 64.083,54.271C64.016,54.375 63.937,54.547 64.068,54.865C64.115,54.974 64.203,55.161 64.323,55.198C64.526,55.255 64.958,54.979 65.245,54.792C65.646,54.531 65.995,54.307 66.349,54.453C66.464,54.495 66.656,54.62 66.729,54.938C66.854,55.5 66.677,55.865 66.562,56.104C66.448,56.333 66.422,56.391 66.573,56.63C66.781,56.958 67.031,57.12 67.25,57.266C67.521,57.438 67.854,57.656 67.854,58.115C67.854,58.458 67.63,58.698 67.438,58.88C67.656,58.932 67.927,58.969 68.156,59C68.807,59.083 69.24,59.141 69.349,59.531C69.385,59.656 69.401,59.901 69.115,60.125C68.792,60.385 67.714,61.036 66.609,61.036C66.469,61.036 66.323,61.026 66.182,61.005C65.578,60.901 65.078,60.557 64.74,60.021C64.359,59.411 64.255,58.938 64.182,58.594C64.063,58.052 64.016,57.828 62.443,57.359C61.62,57.12 60.927,57.177 60.318,57.224C59.911,57.26 59.521,57.292 59.172,57.208C59.75,70.693 70.891,81.484 84.516,81.484C98.401,81.484 109.714,70.266 109.88,56.417C109.818,56.495 109.755,56.568 109.693,56.641C109.542,56.823 109.391,57.01 109.323,57.146C109.021,57.74 107.719,58.208 105.448,58.531ZM79.88,35.651C80.661,37.057 80.401,38.078 80.042,38.682C79.562,39.505 78.677,39.938 78.052,39.938C77.792,39.938 77.573,39.865 77.411,39.729C76.755,39.182 77.349,38.443 77.745,37.948C77.969,37.667 78.276,37.286 78.276,37.073C78.276,36.01 79.276,35.5 79.323,35.479C79.526,35.375 79.771,35.453 79.88,35.651ZM87.922,43.031C87.641,43.172 87.37,43.245 87.125,43.245C86.719,43.245 86.375,43.047 86.161,42.698C85.797,42.104 85.859,41.188 86.135,40.635C86.604,39.698 88.479,39.193 88.849,39.104C88.969,39.073 89.094,39.099 89.198,39.172C89.297,39.24 89.359,39.354 89.37,39.479C89.38,39.589 89.578,42.203 87.922,43.031ZM82.063,63.042C82.589,63.193 82.917,63.443 83.078,63.792C83.344,64.365 83.047,65.016 82.766,65.641C82.594,66.016 82.417,66.406 82.365,66.755C82.146,68.177 80.974,70.083 80.25,70.922C79.87,71.37 79.969,71.609 80.161,72.094C80.224,72.24 80.286,72.391 80.333,72.552C80.417,72.823 80.406,73.042 80.297,73.224C80.141,73.49 79.865,73.552 79.667,73.594C79.484,73.635 79.396,73.661 79.354,73.729C79.125,74.109 79.115,74.635 79.318,75.745C79.464,76.568 79.411,77.177 79.365,77.714C79.344,77.938 79.323,78.151 79.323,78.359C79.323,78.635 79.219,78.891 79.031,79.078C78.839,79.266 78.568,79.37 78.271,79.37C77.568,79.37 76.771,78.813 76.026,77.797C75,76.411 72.562,72.776 71.99,68.99C71.677,66.958 70.563,66.354 69.266,65.661C68.604,65.302 67.917,64.938 67.333,64.354C66.807,63.828 66.578,63.339 66.625,62.859C66.703,62.141 67.37,61.708 68.016,61.286C68.302,61.099 68.594,60.906 68.802,60.708C69.745,59.807 70.245,59.016 70.724,58.219C70.969,57.802 71.302,57.719 71.542,57.719C72.047,57.719 72.552,58.089 73.188,58.563C73.474,58.776 73.766,58.99 74.078,59.188C74.51,59.255 76.349,59.578 77.49,60.25C77.901,60.49 78.354,60.823 78.839,61.172C79.833,61.896 80.964,62.719 82.063,63.042Z" style="fill:rgb(0,132,61);"/>
            </g>
        </g>
        <g transform="matrix(4.16667,0,0,4.16667,10.4509,339.109)">
            <g id="G">
                <g>
                    <g>
                        <path d="M50.083,0L46.229,0C45.604,0 45.292,-0.292 45.292,-0.875L45.354,-5.875C41.104,-1.625 35.427,0.5 28.333,0.5C21.25,0.5 15.333,-1.964 10.583,-6.896C5.844,-11.823 3.479,-18.312 3.479,-26.354C3.479,-31.714 4.672,-36.427 7.063,-40.5C9.464,-44.568 12.51,-47.589 16.208,-49.562C19.917,-51.547 23.922,-52.542 28.229,-52.542C35.63,-52.542 40.958,-50.24 44.208,-45.646L44.125,-51.25C44.026,-51.833 44.318,-52.125 45,-52.125L49.063,-52.125C49.688,-52.125 50,-51.833 50,-51.25L50,-36.292C50,-35.708 49.688,-35.417 49.063,-35.417L44.5,-35.417C43.917,-35.417 43.625,-35.708 43.625,-36.292L43.625,-37.167C43.625,-39.292 42.156,-41.396 39.229,-43.479C36.297,-45.562 32.552,-46.604 28,-46.604C23.458,-46.604 19.359,-44.729 15.708,-40.979C12.052,-37.229 10.229,-32.214 10.229,-25.937C10.229,-19.672 12.068,-14.714 15.75,-11.062C19.427,-7.406 23.542,-5.583 28.083,-5.583C32.635,-5.583 36.234,-6.302 38.875,-7.75C41.51,-9.208 43.484,-10.927 44.792,-12.917L44.792,-18.583L31.292,-18.583C30.708,-18.583 30.417,-18.896 30.417,-19.521L30.417,-22.854C30.417,-23.437 30.708,-23.729 31.292,-23.729L50.083,-23.729C50.667,-23.729 50.958,-23.437 50.958,-22.854L50.958,-0.875C50.958,-0.292 50.667,0 50.083,0Z" style="fill:rgb(0,132,61);fill-rule:nonzero;"/>
                    </g>
                </g>
            </g>
        </g>
    </g>
</svg>
